<svg width="530" height="530" viewBox="0 0 530 530" fill="none" xmlns="http://www.w3.org/2000/svg">
<g clip-path="url(#clip0_207_6)">
<path d="M77 0H452.134C462.246 -1.489e-06 472.258 1.99167 481.6 5.86128C490.943 9.73089 499.431 15.4027 506.581 22.5528C513.731 29.7029 519.403 38.1913 523.273 47.5334C527.142 56.8754 529.134 66.8882 529.134 77V452.134C529.134 462.246 527.142 472.258 523.273 481.6C519.403 490.943 513.731 499.431 506.581 506.581C499.431 513.731 490.943 519.403 481.6 523.273C472.258 527.142 462.246 529.134 452.134 529.134H77C66.8882 529.134 56.8754 527.142 47.5334 523.273C38.1913 519.403 29.7029 513.731 22.5528 506.581C15.4027 499.431 9.73088 490.943 5.86127 481.6C1.99166 472.258 -1.489e-06 462.246 0 452.134V77C0 56.5783 8.11248 36.9931 22.5528 22.5528C36.9931 8.11247 56.5783 0 77 0Z" fill="black"/>
<path d="M243.271 347.253C235.021 343.596 226.795 339.808 216.652 340.868C226.293 351.727 235.249 362.494 243.271 374.099C240.167 369.985 236.277 368.017 231.337 366.934C228.131 366.233 224.788 364.065 222.459 361.611C203.634 341.802 185.084 321.725 166.361 301.813C133.172 266.496 99.9145 231.248 66.714 195.954C61.9793 190.933 57.2558 185.886 52.7492 180.654C50.4104 177.926 48.585 174.747 46.5312 171.764C45.8922 172.196 45.265 172.638 44.626 173.08C46.8963 170.54 49.1212 167.952 51.4486 165.46C61.078 155.171 70.7187 144.917 80.405 134.699C80.9755 134.095 82.0136 133.647 82.8349 133.637C89.1898 133.529 95.5448 133.59 102.276 133.59C101.909 138.508 101.683 143.366 101.158 148.19C99.1732 166.297 102.39 182.902 114.393 197.059C121.101 204.97 127.673 212.999 134.484 220.805C160.668 250.879 186.909 280.896 213.138 310.922C222.039 321.106 230.995 331.256 239.905 341.438C241.296 343.024 242.597 344.701 243.933 346.346C243.717 346.669 243.485 346.939 243.27 347.241L243.271 347.253Z" fill="white"/>
<path d="M357.963 44.6264C361.694 48.8218 365.96 53.6099 370.239 58.411C364.375 65.0406 358.522 71.5311 352.841 78.1726C350.889 80.4429 348.813 81.5861 345.835 81.2033C342.458 80.7719 340.222 81.9151 337.61 84.8055C325.332 98.3215 312.533 111.348 299.8 124.422C277.837 146.957 255.875 169.481 233.73 191.818C226.245 199.356 218.179 206.289 210.911 213C204.179 206.976 196.102 199.752 188.252 192.738C204.488 175.691 219.639 159.996 234.561 144.079C250.671 126.893 266.633 109.542 282.571 92.181C296.468 77.045 310.238 61.7694 324.135 46.633C324.752 45.9697 326.086 45.7109 327.079 45.7216C335.178 45.8295 343.291 46.0991 351.391 46.0991C353.252 46.0991 355.099 45.2956 357.986 44.6323L357.963 44.6264Z" fill="white"/>
<path d="M295.104 333.82C303.136 341.009 310.826 347.883 318.892 355.096C313.964 360.56 309.651 365.454 305.213 370.244C272.446 405.55 239.428 440.622 207.106 476.347C201.561 482.464 196.483 485.156 188.68 484.376C181.481 483.664 174.202 483.891 166.957 483.621C160.077 483.351 158.56 482.305 154.065 475.86C163.808 464.627 173.335 453.536 183.044 442.605C184.242 441.251 186.33 440.486 188.144 439.995C193.141 438.679 197.648 436.964 201.447 432.945C227.824 405.05 254.42 377.353 280.889 349.541C286.023 344.146 290.883 338.494 295.116 333.81L295.104 333.82Z" fill="white"/>
<path d="M289.133 326.688C281.226 334.297 273.686 341.555 265.847 349.095C229.155 310.561 197.369 267.217 161.054 227.471C166.747 220.935 172.087 214.805 177.495 208.607C214.575 247.827 251.415 286.791 289.133 326.688Z" fill="white"/>
<path d="M227.536 138.46C202.276 111.858 177.427 85.6877 152.145 59.051C156.4 54.3649 160.804 49.5196 164.98 44.9171C167.695 45.3485 170.137 46.0118 172.601 46.1196C177.712 46.3353 182.949 46.9608 187.947 46.1427C196.343 44.7892 201.603 48.8444 206.932 54.6253C222.14 71.125 237.725 87.251 253.195 103.494C254.563 104.939 256.15 106.163 257.451 107.328C247.479 117.71 237.496 128.104 227.547 138.462L227.536 138.46Z" fill="white"/>
<path d="M480.634 346.321C472.591 355.375 464.514 364.51 456.345 373.564C455.692 374.287 454.403 374.718 453.411 374.74C448.015 374.847 442.618 374.785 437.221 374.785C431.834 374.785 426.464 374.785 420.917 374.785C421.241 360.313 423.226 345.422 418.809 330.787C414.258 315.698 402.117 306.96 391.907 296.543C398.74 289.248 405.563 281.966 412.716 274.333C435.204 298.174 457.863 322.188 480.634 346.331L480.634 346.321Z" fill="white"/>
<path d="M246.351 195.753C254.315 186.91 261.685 178.73 269.272 170.294C295 198.62 320.911 227.133 347.139 256.018C340.077 263.93 332.742 272.132 324.72 281.128C298.663 252.744 272.672 224.429 246.351 195.753Z" fill="white"/>
<path d="M368.324 472.98C365.267 476.393 362.198 480.017 358.889 483.397C358.158 484.141 356.596 484.292 355.42 484.303C346.305 484.411 337.189 484.249 328.073 484.465C325.13 484.573 322.951 483.764 320.908 481.666C307.787 468.15 294.577 454.704 281.444 441.2C276.937 436.562 272.534 431.82 267.787 426.809C276.458 418.338 285.425 409.576 294.702 400.522C318.547 423.977 343.19 448.225 368.324 472.951V472.98Z" fill="white"/>
<path d="M124.466 310.805C105.127 327.9 97.7912 349.269 100.769 374.916C92.1892 374.916 84.1572 374.926 76.1251 374.88C75.656 374.88 75.1097 374.394 74.722 373.995C65.7658 365.116 56.821 356.213 47.4998 346.939C72.6113 319.905 97.0839 293.573 121.602 267.193C123.507 269.242 124.991 270.849 126.052 271.992C120.05 278.296 113.41 284.157 108.242 291.148C105.549 294.783 105.31 300.377 104.317 305.166C104.155 305.91 105.766 307.598 106.827 307.938C109.245 308.709 111.835 308.93 114.357 309.324C117.277 309.755 120.198 310.187 124.454 310.812L124.466 310.805Z" fill="white"/>
<path d="M142.288 348.978C157.085 364.591 171.506 379.821 185.985 395.096C176.036 405.583 166.178 415.965 155.785 426.917C141.272 411.782 126.805 396.704 112.293 381.568C122.356 370.626 132.236 359.896 142.276 348.978H142.288Z" fill="white"/>
<path d="M355.299 433.759C333.086 424.799 320.65 404.244 301.996 390.286C306.24 386.711 309.708 383.784 313.039 380.988C323.102 390.309 334.01 400.424 344.677 410.304C358.893 394.982 372.64 380.16 386.343 365.373C391.557 371.293 396.715 377.118 402.179 383.318C386.64 400.027 370.918 416.946 355.288 433.759H355.299Z" fill="white"/>
<path d="M352.409 112.02C346.647 117.765 340.966 123.591 335.079 129.196C333.937 130.29 332.055 131.051 330.481 131.094C324.377 131.31 318.25 131.202 310.675 131.202C320.624 121.076 329.672 111.824 338.81 102.666C339.415 102.062 340.737 102.18 341.742 102.024C342.564 101.916 343.624 102.24 344.206 101.808C350.903 97.0682 358.661 101.177 365.689 99.139C366.397 98.9233 367.732 100.433 368.564 101.339C380.897 114.646 393.173 127.999 405.495 141.306C406.854 142.773 408.396 144.067 410.241 145.814C404.023 151.663 397.817 157.501 391.29 163.641C387.801 159.775 383.623 155.252 379.562 150.638C370.993 140.908 362.482 131.132 353.96 121.356C351.701 118.767 349.464 116.087 353.901 113.002C353.399 112.678 352.896 112.338 352.383 112.009L352.409 112.02Z" fill="white"/>
<path d="M373.321 228.206C367.662 233.588 362.276 238.704 356.024 244.647C335.043 220.935 313.549 196.651 291.369 171.6C296.548 166.229 301.773 160.798 307.433 154.914C329.396 179.348 351.107 203.502 373.31 228.217L373.321 228.206Z" fill="white"/>
<path d="M161.446 91.852C166.101 96.6891 170.562 101.325 175.183 106.114C160.853 122.183 146.546 138.227 132.786 153.666C127.481 148.958 122.05 144.158 116.688 139.416C132.022 123.126 146.534 107.711 161.457 91.852H161.446Z" fill="white"/>
<path d="M227.321 390.854C215.317 403.614 203.121 416.839 190.571 429.691C188.266 432.053 184.604 433.898 181.375 434.259C175.078 434.971 168.643 434.475 161.523 434.475C180.109 415.796 198.273 397.538 216.664 379.045C219.927 382.658 223.647 386.783 227.321 390.86V390.854Z" fill="white"/>
<path d="M378.82 304.302C385.426 310.711 391.69 317.761 398.946 323.528C405.655 328.867 408.975 334.912 408.815 343.617C408.708 349.337 409.899 355.095 410.514 360.827L409.522 361.259C395.82 346.343 382.106 331.417 368.415 316.503C371.849 312.491 375.192 308.579 378.832 304.314L378.82 304.302Z" fill="white"/>
<path d="M382.257 220.303C378.229 215.336 374.614 210.9 371.065 206.541C384.095 192.804 396.986 179.206 410.506 164.956C409.638 174.942 408.85 184.38 407.971 193.806C407.917 194.599 407.4 195.494 406.828 196.055C398.705 204.119 390.549 212.146 382.253 220.314L382.257 220.303Z" fill="white"/>
<path d="M160.849 208.908C158.066 211.238 155.441 213.433 151.996 216.296C140.107 202.023 128.402 187.842 116.548 173.79C111.961 168.36 110.98 162.243 112.098 155.636C128.231 173.266 144.431 190.965 160.849 208.908Z" fill="white"/>
<path d="M145.96 324.59C146.451 323.819 146.896 323.015 147.443 322.298C149.417 319.72 151.642 317.24 148.402 313.966C148.024 313.588 148.482 312.348 148.547 311.507C148.65 310.234 148.752 308.967 148.855 307.694H144.633C146.459 305.408 148.432 302.938 151.205 299.479C150.646 301.787 150.36 302.952 150.03 304.3C156.51 299.258 158.439 306.991 162.306 308.156C156.955 313.843 151.696 319.425 146.448 325.005C146.286 324.843 146.129 324.735 145.957 324.573L145.96 324.59Z" fill="white"/>
<path d="M484.495 172.006C482.171 169.758 480.046 167.859 478.095 165.784C471.306 158.548 464.631 151.172 457.763 144.018C456.372 142.573 454.366 141.095 452.516 140.895C449.205 140.572 445.796 141.327 442.43 141.381C435.643 141.489 428.842 141.416 421.54 141.416C421.54 143.222 421.506 144.619 421.54 146.032C421.756 155.039 422.306 164.046 422.214 173.053C422.169 178.052 421.303 189.866 413.691 200.657C412.585 202.226 410.827 204.491 408.272 206.914L380.251 237.395C355.802 263.461 331.341 289.539 306.89 315.604C315.014 323.388 323.137 331.171 331.261 338.966C331.719 338.427 332.412 337.542 333.177 336.717C352.63 315.29 372.117 293.873 391.513 272.386C398.996 264.102 406.469 255.829 413.953 247.544C432.858 227.619 451.729 207.671 470.554 187.665C475.348 182.574 479.886 177.213 484.508 172.016L484.495 172.006Z" fill="white"/>
<path d="M299.383 150.333C295.162 154.911 290.94 159.503 286.605 164.199C284.688 162.705 283.148 161.508 281.162 159.955C282.395 158.429 283.502 157.065 284.379 155.981C286.069 156.633 287.403 157.156 288.727 157.669C288.861 157.507 288.991 157.399 289.093 157.399C292.527 155.048 295.95 152.691 299.385 150.35L299.383 150.333Z" fill="white"/>
<path d="M299.382 150.335C295.947 152.686 292.525 155.042 289.09 157.384C290.038 156.112 290.791 154.623 291.954 153.631C294.269 151.663 295.103 149.624 293.198 146.931C294.966 146.769 296.792 146.246 298.48 146.553C298.992 146.661 299.096 149.002 299.393 150.307L299.382 150.335Z" fill="white"/>
<path d="M293.188 146.943C295.095 149.623 294.261 151.662 291.946 153.644C290.782 154.636 290.028 156.124 289.082 157.397C288.98 157.432 288.866 157.505 288.716 157.666C286.615 155.779 286.49 154.01 288.705 151.98C290.348 150.476 291.706 148.626 293.188 146.933L293.188 146.943Z" fill="white"/>
</g>
<defs>
<clipPath id="clip0_207_6">
<rect width="529.134" height="529.134" fill="white"/>
</clipPath>
</defs>
</svg>

